<svg viewBox="0 0 432.27 121.23" xmlns="http://www.w3.org/2000/svg"><path d="m29.52 68.93h22.82v35.96h-22.82z" fill="#233369"/><path d="m88.57 28.94h22.82v75.96h-22.82z" fill="#233369"/><path d="m0 49.94h22.82v54.95h-22.82z" fill="#233369"/><path d="m78.95 0h-16.99l-6.83 1.62v4.35l3.91 1.48v97.44h22.82v-97.43l3.91-1.48v-4.36l-6.83-1.62zm-14.7 27c0-1.12.91-2.02 2.02-2.02s2.02.91 2.02 2.02v12.8h-4.04zm0 20.72c0-1.12.91-2.02 2.02-2.02s2.02.91 2.02 2.02v12.8h-4.04zm0 20.71c0-1.12.91-2.02 2.02-2.02s2.02.91 2.02 2.02v12.8h-4.04zm10.22 25.68h-.78v10.78h-6.47v-10.78h-.78v-1.81h8.03zm1.92-12.88h-4.04v-12.8c0-1.12.91-2.02 2.02-2.02s2.02.91 2.02 2.02zm0-20.71h-4.04v-12.8c0-1.12.91-2.02 2.02-2.02s2.02.91 2.02 2.02zm0-20.72h-4.04v-12.8c0-1.12.91-2.02 2.02-2.02s2.02.91 2.02 2.02z" fill="#da1a32"/><path d="m146.25 28.87c.69.89 1.03 1.9 1.03 3.03 0 1.64-.57 2.94-1.72 3.9s-2.74 1.44-4.79 1.44h-9.14v-19.61h8.83c1.99 0 3.55.46 4.68 1.37s1.69 2.15 1.69 3.72c0 1.16-.3 2.11-.91 2.88s-1.41 1.29-2.42 1.59c1.14.24 2.05.81 2.74 1.69zm-9.83-3.31h3.13c.78 0 1.38-.17 1.8-.52.42-.34.63-.85.63-1.52s-.21-1.18-.63-1.54c-.42-.35-1.02-.53-1.8-.53h-3.13zm5.38 7.28c.44-.36.66-.89.66-1.58s-.23-1.23-.68-1.62c-.46-.39-1.08-.59-1.89-.59h-3.46v4.33h3.52c.8 0 1.42-.18 1.86-.54z" fill="#233369"/><path d="m160.87 21.45v3.97h6.4v3.69h-6.4v4.3h7.24v3.83h-12.01v-19.61h12.01v3.83h-7.24z" fill="#233369"/><path d="m182.02 33.55h6.26v3.69h-11.04v-19.61h4.78v15.93z" fill="#233369"/><path d="m218.81 17.63v19.61h-4.78v-11.76l-4.39 11.76h-3.86l-4.41-11.79v11.79h-4.78v-19.61h5.64l5.5 13.58 5.45-13.58h5.62z" fill="#233369"/><path d="m232.49 36.15c-1.54-.86-2.76-2.05-3.66-3.59s-1.36-3.26-1.36-5.18.45-3.64 1.36-5.17c.9-1.53 2.12-2.72 3.66-3.58s3.23-1.29 5.07-1.29 3.54.43 5.07 1.29c1.54.86 2.75 2.05 3.63 3.58s1.33 3.25 1.33 5.17-.45 3.65-1.34 5.18c-.89 1.54-2.1 2.73-3.63 3.59s-3.21 1.29-5.06 1.29-3.53-.43-5.07-1.29zm8.83-4.64c.94-1.04 1.41-2.42 1.41-4.14s-.47-3.12-1.41-4.15-2.19-1.55-3.76-1.55-2.84.51-3.79 1.54c-.94 1.02-1.41 2.41-1.41 4.16s.47 3.12 1.41 4.15 2.2 1.55 3.79 1.55 2.82-.52 3.76-1.56z" fill="#233369"/><path d="m273.83 37.24h-4.78l-7.99-12.1v12.1h-4.78v-19.61h4.78l7.99 12.15v-12.15h4.78z" fill="#233369"/><path d="m297.44 17.63v3.83h-5.2v15.79h-4.78v-15.79h-5.2v-3.83h15.17z" fill="#233369"/><path d="m144.41 52.38c1.55.82 2.74 1.97 3.59 3.45s1.27 3.19 1.27 5.13-.42 3.62-1.27 5.11-2.05 2.65-3.6 3.46c-1.55.82-3.36 1.23-5.41 1.23h-7.35v-19.61h7.35c2.07 0 3.87.41 5.42 1.23zm-1.51 12.77c1.01-.99 1.51-2.38 1.51-4.19s-.5-3.21-1.51-4.22-2.41-1.51-4.22-1.51h-2.26v11.4h2.26c1.81 0 3.21-.49 4.22-1.48z" fill="#da1a32"/><path d="m170.2 67.3h-7.32l-1.17 3.46h-5l7.1-19.61h5.53l7.1 19.61h-5.06l-1.17-3.46zm-1.23-3.69-2.43-7.18-2.4 7.18z" fill="#da1a32"/><path d="m198.73 51.15v3.83h-5.2v15.79h-4.78v-15.79h-5.2v-3.83h15.17z" fill="#da1a32"/><path d="m219.37 67.3h-7.32l-1.17 3.46h-5l7.1-19.61h5.53l7.1 19.61h-5.06l-1.17-3.46zm-1.23-3.69-2.43-7.18-2.4 7.18z" fill="#da1a32"/><path d="m260.75 70.77-1.82-1.76c-1.81 1.38-3.97 2.07-6.48 2.07-1.51 0-2.82-.25-3.94-.74s-1.98-1.19-2.58-2.1c-.61-.9-.91-1.96-.91-3.17s.33-2.34.99-3.34 1.65-1.81 2.98-2.44c-.48-.6-.83-1.17-1.03-1.72-.21-.55-.31-1.15-.31-1.8 0-.93.24-1.78.73-2.54.48-.76 1.19-1.36 2.11-1.8s2.02-.66 3.28-.66 2.38.23 3.27.7 1.56 1.09 2.01 1.87.65 1.64.61 2.57h-4.5c.02-.5-.11-.89-.38-1.16s-.63-.41-1.08-.41-.82.13-1.12.39-.45.6-.45 1.01.13.8.38 1.23.65.92 1.19 1.48l4.78 4.67c.04-.09.09-.2.15-.33s.13-.28.21-.45l1.03-1.76h4.78l-1.34 2.43c-.5 1.1-1.08 2.14-1.73 3.13l4.72 4.64h-5.56zm-4.75-4.61-4.36-4.22c-1.34.69-2.01 1.62-2.01 2.79 0 .71.27 1.3.82 1.77.55.48 1.29.71 2.22.71 1.25 0 2.36-.35 3.32-1.06z" fill="#233369"/><path d="m298.25 67.3h-7.32l-1.17 3.46h-5l7.1-19.61h5.53l7.1 19.61h-5.06l-1.17-3.46zm-1.23-3.69-2.43-7.18-2.4 7.18z" fill="#da1a32"/><path d="m317.44 51.15v19.61h-4.78v-19.61z" fill="#da1a32"/><g fill="#233369"><path d="m132.09 89.28c.84-1.52 2.01-2.7 3.51-3.55s3.2-1.27 5.1-1.27c2.33 0 4.32.61 5.98 1.84s2.77 2.91 3.33 5.03h-5.25c-.39-.82-.95-1.44-1.66-1.87-.72-.43-1.53-.64-2.45-.64-1.47 0-2.66.51-3.58 1.54-.91 1.02-1.37 2.39-1.37 4.11s.46 3.08 1.37 4.11c.91 1.02 2.1 1.54 3.58 1.54.91 0 1.73-.21 2.45-.64s1.27-1.05 1.66-1.87h5.25c-.56 2.12-1.67 3.8-3.33 5.02s-3.65 1.83-5.98 1.83c-1.9 0-3.6-.42-5.1-1.27s-2.67-2.03-3.51-3.53c-.84-1.51-1.26-3.23-1.26-5.17s.42-3.66 1.26-5.18z"/><path d="m163.17 103.21c-1.54-.86-2.76-2.05-3.66-3.59s-1.36-3.26-1.36-5.18.45-3.64 1.36-5.17c.9-1.53 2.12-2.72 3.66-3.58s3.23-1.29 5.07-1.29 3.54.43 5.07 1.29c1.54.86 2.75 2.05 3.63 3.58s1.33 3.25 1.33 5.17-.45 3.65-1.34 5.18c-.89 1.54-2.1 2.73-3.63 3.59s-3.21 1.29-5.06 1.29-3.53-.43-5.07-1.29zm8.83-4.64c.94-1.04 1.41-2.42 1.41-4.14s-.47-3.12-1.41-4.15-2.19-1.55-3.76-1.55-2.84.51-3.79 1.54c-.94 1.02-1.41 2.41-1.41 4.16s.47 3.12 1.41 4.15 2.2 1.55 3.79 1.55 2.82-.52 3.76-1.56z"/><path d="m191.74 100.61h6.26v3.69h-11.04v-19.61h4.78v15.93z"/><path d="m211.1 100.61h6.26v3.69h-11.04v-19.61h4.78v15.93z"/><path d="m237.9 100.83h-7.32l-1.17 3.46h-5l7.1-19.61h5.53l7.1 19.61h-5.06l-1.17-3.46zm-1.23-3.69-2.43-7.18-2.4 7.18z"/><path d="m266.93 95.93c.69.89 1.03 1.9 1.03 3.03 0 1.64-.57 2.94-1.72 3.9s-2.74 1.44-4.79 1.44h-9.14v-19.61h8.83c1.99 0 3.55.46 4.68 1.37s1.69 2.15 1.69 3.72c0 1.16-.3 2.11-.91 2.88s-1.41 1.29-2.42 1.59c1.14.24 2.05.81 2.74 1.69zm-9.84-3.31h3.13c.78 0 1.38-.17 1.8-.52.42-.34.63-.85.63-1.52s-.21-1.18-.63-1.54c-.42-.35-1.02-.53-1.8-.53h-3.13zm5.38 7.28c.44-.36.66-.89.66-1.58s-.23-1.23-.68-1.62c-.46-.39-1.08-.59-1.89-.59h-3.46v4.33h3.52c.8 0 1.42-.18 1.86-.54z"/><path d="m280.97 103.21c-1.54-.86-2.76-2.05-3.66-3.59s-1.36-3.26-1.36-5.18.45-3.64 1.36-5.17c.9-1.53 2.12-2.72 3.66-3.58s3.23-1.29 5.07-1.29 3.54.43 5.07 1.29c1.54.86 2.75 2.05 3.63 3.58s1.33 3.25 1.33 5.17-.45 3.65-1.34 5.18c-.89 1.54-2.1 2.73-3.63 3.59s-3.21 1.29-5.06 1.29-3.53-.43-5.07-1.29zm8.82-4.64c.94-1.04 1.41-2.42 1.41-4.14s-.47-3.12-1.41-4.15-2.19-1.55-3.76-1.55-2.84.51-3.79 1.54c-.94 1.02-1.41 2.41-1.41 4.16s.47 3.12 1.41 4.15 2.2 1.55 3.79 1.55 2.82-.52 3.76-1.56z"/><path d="m314.76 104.3-4.08-7.4h-1.15v7.4h-4.78v-19.61h8.02c1.55 0 2.86.27 3.95.81s1.9 1.28 2.45 2.22c.54.94.81 1.99.81 3.14 0 1.3-.37 2.47-1.1 3.49-.74 1.02-1.82 1.75-3.25 2.18l4.53 7.77h-5.39zm-5.23-10.79h2.96c.88 0 1.53-.21 1.97-.64s.66-1.03.66-1.82-.22-1.33-.66-1.76-1.09-.64-1.97-.64h-2.96z"/><path d="m341.22 100.83h-7.32l-1.17 3.46h-5l7.1-19.61h5.53l7.1 19.61h-5.06l-1.17-3.46zm-1.23-3.69-2.43-7.18-2.4 7.18z"/><path d="m369.74 84.68v3.83h-5.2v15.79h-4.78v-15.79h-5.2v-3.83h15.17z"/><path d="m382.96 84.68v19.61h-4.78v-19.61z"/><path d="m410.87 84.68-6.96 19.61h-5.98l-6.96-19.61h5.08l4.86 14.81 4.89-14.81h5.06z"/><path d="m423.67 88.51v3.97h6.4v3.69h-6.4v4.3h7.24v3.83h-12.01v-19.61h12.01v3.83h-7.24z"/></g></svg>